<?xml version="1.0" standalone="no"?><!DOCTYPE svg PUBLIC "-//W3C//DTD SVG 1.1//EN" "http://www.w3.org/Graphics/SVG/1.1/DTD/svg11.dtd"><svg t="1516004454293" class="icon" style="" viewBox="0 0 1024 1024" version="1.1" xmlns="http://www.w3.org/2000/svg" p-id="1920" xmlns:xlink="http://www.w3.org/1999/xlink" width="200" height="200"><defs><style type="text/css"></style></defs><path d="M711.703273 678.795636l165.841454 165.841455a23.249455 23.249455 0 1 1-32.907636 32.907636l-165.841455-165.841454A324.561455 324.561455 0 0 1 465.454545 791.272727c-179.944727 0-325.818182-145.873455-325.818181-325.818182S285.509818 139.636364 465.454545 139.636364s325.818182 145.873455 325.818182 325.818181c0 81.594182-29.998545 156.183273-79.569454 213.341091zM465.454545 744.727273c154.228364 0 279.272727-125.044364 279.272728-279.272728S619.682909 186.181818 465.454545 186.181818 186.181818 311.226182 186.181818 465.454545s125.044364 279.272727 279.272727 279.272728z" fill="#999999" p-id="1921"></path></svg>