<?xml version="1.0" encoding="utf-8"?>
<!-- Generator: Adobe Illustrator 23.0.0, SVG Export Plug-In . SVG Version: 6.00 Build 0)  -->
<svg version="1.1" id="图层_1" xmlns="http://www.w3.org/2000/svg" xmlns:xlink="http://www.w3.org/1999/xlink" x="0px" y="0px"
	 viewBox="0 0 200 200" style="enable-background:new 0 0 200 200;" xml:space="preserve">
<style type="text/css">
	.st0{fill:#333333;}
</style>
<g>
	<g>
		<path class="st0" d="M151.8,98l-35.5-35.5c-1.7-1.7-4.5-1.7-6.3,0c-1.7,1.7-1.7,4.5,0,6.3l28.1,28.1H51.2c-2.4,0-4.3,1.9-4.3,4.3
			c0,2.4,1.9,4.3,4.3,4.3h86.9L110,133.5c-1.7,1.7-1.7,4.5,0,6.3c0.9,0.9,2,1.3,3.1,1.3s2.3-0.4,3.1-1.3l35.5-35.5
			c0.8-0.8,1.3-2,1.3-3.1S152.6,98.8,151.8,98L151.8,98z M151.8,98"/>
	</g>
</g>
</svg>
