<?xml version="1.0" encoding="utf-8"?>
<!-- Generator: Adobe Illustrator 22.0.1, SVG Export Plug-In . SVG Version: 6.00 Build 0)  -->
<svg version="1.1" id="图层_1" xmlns="http://www.w3.org/2000/svg" xmlns:xlink="http://www.w3.org/1999/xlink" x="0px" y="0px"
	 viewBox="0 0 50 50" style="enable-background:new 0 0 50 50;" xml:space="preserve">
<style type="text/css">
	.st0{fill:#EC4A89;}
</style>
<g>
	<path class="st0" d="M24.2,20.2c-2.5-4.5-5.2-8.2-5.4-8.4c-4.1,1.9-7.1,5.7-8.1,10.2C11.1,22,17.2,22.1,24.2,20.2z"/>
	<path class="st0" d="M26,25.1c0.2-0.1,0.4-0.1,0.6-0.2c-0.4-0.8-0.8-1.7-1.2-2.5c-7.5,2.3-14.8,2.1-15,2.1c0,0.2,0,0.3,0,0.5
		c0,3.8,1.4,7.2,3.7,9.8C14.1,34.8,18.1,27.7,26,25.1z"/>
	<path class="st0" d="M34.7,14c-2.6-2.3-6-3.6-9.7-3.6c-1.2,0-2.3,0.1-3.4,0.4c0.2,0.3,3,3.9,5.5,8.5C32.5,17.2,34.6,14.1,34.7,14z"
		/>
	<path class="st0" d="M27.5,27.4c-8.6,3-11.5,9.1-11.5,9.1c2.5,1.9,5.6,3.1,9,3.1c2,0,4-0.4,5.7-1.2C30.5,37.2,29.6,32.7,27.5,27.4
		C27.6,27.4,27.5,27.4,27.5,27.4z"/>
	<path class="st0" d="M28.1,21.5c0.3,0.7,0.7,1.4,1,2.1c0.1,0.3,0.2,0.5,0.3,0.8c5-0.6,10,0.4,10.2,0.5c0-3.5-1.3-6.7-3.3-9.1
		C36.3,15.7,33.9,19.1,28.1,21.5z"/>
	<path class="st0" d="M0,0v50h50V0H0z M41.8,28.4c-0.2,1.1-0.6,2.2-1,3.2c-0.4,1-1,2-1.6,2.9c-0.6,0.9-1.3,1.8-2.1,2.5
		c-0.8,0.8-1.6,1.5-2.5,2.1c-0.9,0.6-1.9,1.1-2.9,1.6c-1,0.4-2.1,0.8-3.2,1c-1.1,0.2-2.3,0.4-3.5,0.4c-1.2,0-2.3-0.1-3.5-0.4
		c-1.1-0.2-2.2-0.6-3.2-1c-1-0.4-2-1-2.9-1.6c-0.9-0.6-1.8-1.3-2.5-2.1c-0.8-0.8-1.5-1.6-2.1-2.5c-0.6-0.9-1.1-1.9-1.6-2.9
		c-0.4-1-0.8-2.1-1-3.2C8,27.3,7.9,26.2,7.9,25c0-1.2,0.1-2.3,0.3-3.5c0.2-1.1,0.6-2.2,1-3.2c0.4-1,1-2,1.6-2.9
		c0.6-0.9,1.3-1.8,2.1-2.5c0.8-0.8,1.6-1.5,2.5-2.1c0.9-0.6,1.9-1.2,2.9-1.6c1-0.4,2.1-0.8,3.2-1C22.7,8,23.8,7.9,25,7.9
		c1.2,0,2.3,0.1,3.5,0.3c1.1,0.2,2.2,0.6,3.2,1c1,0.4,2,1,2.9,1.6c0.9,0.6,1.8,1.3,2.5,2.1c0.8,0.8,1.5,1.6,2.1,2.5
		c0.6,0.9,1.2,1.9,1.6,2.9c0.4,1,0.8,2.1,1,3.2c0.2,1.1,0.3,2.3,0.3,3.5C42.1,26.2,42,27.3,41.8,28.4z"/>
	<path class="st0" d="M30.3,26.7c1.9,5.3,2.7,9.6,2.8,10.5c3.3-2.2,5.6-5.7,6.3-9.8C39.1,27.2,35.1,25.9,30.3,26.7z"/>
</g>
</svg>
