<?xml version="1.0" encoding="utf-8"?>
<!-- Generator: Adobe Illustrator 22.1.0, SVG Export Plug-In . SVG Version: 6.00 Build 0)  -->
<svg version="1.1" id="图层_1" xmlns="http://www.w3.org/2000/svg" xmlns:xlink="http://www.w3.org/1999/xlink" x="0px" y="0px"
	 viewBox="0 0 50 50" style="enable-background:new 0 0 50 50;" xml:space="preserve">
<style type="text/css">
	.st0{fill:#FFFFFF;}
	.st1{fill:#FBBC05;}
	.st2{fill:#EA4335;}
	.st3{fill:#34A853;}
	.st4{fill:#4285F4;}
</style>
<rect y="0" class="st0" width="50" height="50"/>
<g>
	<path class="st1" d="M13,25c0-1.4,0.3-2.7,0.6-4l-7.1-5.4c-1.3,2.8-2.2,6-2.2,9.3s0.8,6.5,2.2,9.3l7.1-5.5C13.2,27.6,13,26.4,13,25
		z"/>
	<path class="st2" d="M25.4,12.5c3,0,5.6,1.1,7.7,2.8l6.2-6.2c-3.8-3.3-8.5-5.3-13.9-5.3C17.2,3.9,10,8.6,6.5,15.7l7.1,5.5
		C15.2,16.1,20,12.5,25.4,12.5z"/>
	<path class="st3" d="M25.4,37.5c-5.5,0-10.2-3.6-11.9-8.5l-7,5.4c3.4,7,10.6,11.8,18.9,11.8c5.2,0,10-1.8,13.7-5.3l-6.8-5.2
		C30.6,36.8,28.2,37.5,25.4,37.5z"/>
	<path class="st3" d="M13.7,28.9l-7.1,5.5l0,0L13.7,28.9L13.7,28.9z"/>
	<path class="st4" d="M25.4,21.1v8.2h11.3c-0.5,2.8-2.1,4.9-4.3,6.3l6.8,5.2c3.9-3.6,6.4-9,6.4-15.8c0-1.2-0.2-2.6-0.4-3.9
		C45.2,21.1,25.4,21.1,25.4,21.1z"/>
</g>
</svg>
