<?xml version="1.0" encoding="utf-8"?>
<!-- Generator: Adobe Illustrator 23.0.0, SVG Export Plug-In . SVG Version: 6.00 Build 0)  -->
<svg version="1.1" id="图层_1" xmlns="http://www.w3.org/2000/svg" xmlns:xlink="http://www.w3.org/1999/xlink" x="0px" y="0px"
	 viewBox="0 0 250 150" style="enable-background:new 0 0 250 150;" xml:space="preserve">
<style type="text/css">
	.st0{fill:#5179BC;}
	.st1{fill:#D5402F;}
	.st2{fill:#EBB621;}
	.st3{fill:#45A256;}
	.st4{fill:url(#SVGID_1_);}
	.st5{fill:url(#SVGID_2_);}
</style>
<path class="st0" d="M13.1,63.7c-1.3,2-3,4-4.5,5.5l-1.5-1c2.8-2.8,5.8-7,7-10l1.8,0.3c-0.5,1.3-1.3,2.5-2.3,3.8h11v1.5H13.1z
	 M10.4,73.2h1.8v20.1h-1.8V73.2z M11.4,68.9l1.3-1.3c1.3,1.3,3.3,3,4.8,4.5l-1.3,1.3C14.6,71.9,12.6,69.9,11.4,68.9z M15.9,64.7
	l1.3-0.8c0.8,1,2,2.5,2.8,3.5l-1.5,0.8C18.4,67.4,16.9,65.9,15.9,64.7z M31.4,75.7v13H17.9v-13H31.4z M34.2,91c3,0,3.3-0.5,3.3-3
	V71.4H19.2v-1.8h20.1v18.8c0,3.5-0.8,4.3-4.8,4.3h-4.5L29.7,91C29.7,91,34.2,91,34.2,91z M19.7,81.5h10.3v-4.3H19.7V81.5z
	 M29.7,87.2V83H19.4v4.3H29.7z M28.4,63.7c-1,1.8-2,3.3-3,4.8l-1.5-0.8c2.3-3,4.3-6.3,5.5-9.5l1.8,0.3c-0.5,1.3-1.3,2.5-1.8,3.8H42
	v1.5C42.2,63.7,28.4,63.7,28.4,63.7z M32.2,64.9l1.3-0.8c1,1,2.3,2.5,3,3.5l-1.3,1C34.2,67.2,33.2,65.9,32.2,64.9z"/>
<path class="st1" d="M75.9,86.2v7.3h-1.8v-7.3H57.8v-1.8h16.3v-5h-12V64.2h7.8c-1-1.3-3.3-4-4.3-5l1.3-1c1,1,3.5,4,4.5,5l-1.3,1h8.3
	c1.5-1.8,3.5-4.3,4.8-6l1.8,0.8c-1,1.5-2.8,3.5-4.3,5.3h7.5v15.5h-12v5h16.3v1.8L75.9,86.2C75.9,86.5,75.9,86.2,75.9,86.2z
	 M63.6,70.9h10.3v-5.3H63.6V70.9z M63.6,77.9h10.3v-5.3H63.6V77.9z M75.9,65.7v5.3h10.3v-5.3H75.9z M86.1,77.9v-5.3H75.9v5.3H86.1z"
	/>
<path class="st2" d="M165.7,65.9h4.3v1.8h-4.3v7.5l3.8-1.8l0.3,1.8l-4,1.8v11.8c0,2.8-0.8,3.3-3.8,3.3h-2.5l-0.3-1.8h2.3
	c2.3,0,2.8-0.5,2.8-2.3V77.7l-5.3,2.3l-0.3-1.8c1.5-0.5,3.5-1.5,5.5-2.3v-8.3h-5v-1.8h5v-7.5h1.8L165.7,65.9L165.7,65.9z
	 M180.5,79.7v-4.3h-8.8v-13c1.8-0.3,4.3-1,6.5-2l0.5,1.5c-2,0.8-4,1.5-5.5,1.8v4.3h5.3v1.5h-5.3v4.5h7V58.4h1.8v15.5h7.3v-4.5H184
	v-1.5h5.5v-4.5H184v-1.5h7.3v13.5h-9v4.3h7.8v1.5c-2.3,3-4.3,5-7.3,6.8c2.8,1.3,6.3,2.3,11,3l-0.5,1.8c-5.3-1-9-2.3-12.3-3.8
	c-3.3,1.5-7.3,2.8-12.8,4l-0.5-1.8c5-1,8.8-2,11.5-3.3c-2.3-1.5-4.3-3.5-6.5-6l1-0.8h-3v-1.5C170.7,79.7,180.5,79.7,180.5,79.7z
	 M181.2,87c2.5-1.5,4.5-3.3,6.5-5.8h-13.3C176.7,83.7,178.7,85.5,181.2,87z"/>
<path class="st3" d="M210,92.7l-0.8-1.8c3.5-1.5,7.8-3.8,10.8-5.8l0.8,1.5C217.7,89,213.5,91.2,210,92.7z M239.6,83l-11.3,0.3V89
	c0,3-1,4-4.5,4h-3.5l-0.3-1.8h3.3c2.8,0,3.3-0.8,3.3-2.8v-5.3c-5,0-10.3,0.3-14.8,0.5l-0.3-1.5c1.5,0,3-0.3,3.5-0.3
	c4.5-1.3,8.8-3.3,12.5-5c-3.5,0-9.3,0.3-13.5,0.5l-0.3-1.3c1.3,0,2.5-0.3,2.8-0.5c3.5-1.5,7-3.5,9.5-5.5l1,1c-2,1.5-4.3,2.8-6.8,4.3
	l10-0.3c2-1,3.8-2.3,5.3-3.3l1,1.3c-4.8,3-10,6-16,8.3L238,81c-1.5-1.3-3-2.3-4-3.3l1-1.3c2.3,1.8,5.8,4.5,8,6.5l-1,1.3
	C241.1,84.2,240.3,83.7,239.6,83z M211.5,68.4H226v-4.5h-14.3v-1.5H226v-3.8h1.8v3.8h14.3v1.5h-14.3v4.5h14.5v6.5h-1.8v-4.8h-27.3
	v4.8h-1.8L211.5,68.4L211.5,68.4z M232,87l0.8-1.5c2.8,1.3,8.8,4.3,11.5,5.8l-0.8,1.5C240.6,91.2,234.8,88.2,232,87z"/>
<g>
	<g>
		
			<linearGradient id="SVGID_1_" gradientUnits="userSpaceOnUse" x1="125.2537" y1="57.4964" x2="125.9496" y2="90.9025" gradientTransform="matrix(1 0 0 -1 0 152)">
			<stop  offset="0" style="stop-color:#683FFF"/>
			<stop  offset="1" style="stop-color:#DA2AFF"/>
		</linearGradient>
		<path class="st4" d="M109.9,75.4c0-5.8,1-9.5,2.8-14c0.3-1,1-2,1.8-2.5c1.3-1,2.5-0.8,4-0.5c2.3,0.3,4.5,1.3,6.5,2.5
			c3.8,2.3,7.3,4.5,10.8,7c1.8,1.3,3.5,2.8,4.8,4.5c1.3,1.8,1.3,3.3,0.3,5.3c-1.3,2.5-3,4.5-5.5,6.3c-0.8,0.5-1.8,1-2.5,0.3
			c-0.8-0.5-1-1.5-0.8-2.5c0.3-1,0.5-1.8,1-2.8c1.5-3.5,0.5-6.5-1.8-9c-1.8-2.3-4.3-3.8-7.3-3.8c-3.8,0-7.3,2.5-8.5,6.3
			c-1.3,4.3,0.8,8.8,4.5,11.3c1.3,0.8,2.5,1,4,1c1,0,2,0,3,0c0.8,0,1.5,0.3,2,0.8c1,0.8,1,1.8,0.3,2.8c-1,1.3-2.3,2-3.8,2.8
			c-1.8,1-3.5,1.8-5.3,2.3c-3.8,1-6,0-8-3C111.4,87.7,109.9,81.5,109.9,75.4z"/>
		
			<linearGradient id="SVGID_2_" gradientUnits="userSpaceOnUse" x1="124.1337" y1="57.5196" x2="124.8297" y2="90.9257" gradientTransform="matrix(1 0 0 -1 0 152)">
			<stop  offset="0" style="stop-color:#683FFF"/>
			<stop  offset="1" style="stop-color:#DA2AFF"/>
		</linearGradient>
		<path class="st5" d="M124.4,70.7c2.8,0,4.8,2.3,4.8,5c0,2.5-2,4.5-4.5,4.5c-2.8,0-4.8-2.3-4.8-5C119.7,72.7,121.7,70.7,124.4,70.7
			z"/>
	</g>
</g>
</svg>
