<?xml version="1.0" encoding="utf-8"?>
<!-- Generator: Adobe Illustrator 23.0.0, SVG Export Plug-In . SVG Version: 6.00 Build 0)  -->
<svg version="1.1" id="图层_1" xmlns="http://www.w3.org/2000/svg" xmlns:xlink="http://www.w3.org/1999/xlink" x="0px" y="0px"
	 viewBox="0 0 500 200" style="enable-background:new 0 0 500 200;" xml:space="preserve">
<style type="text/css">
	.st0{fill:#5179BC;}
	.st1{fill:#D5402F;}
	.st2{fill:#EBB621;}
	.st3{fill:#45A256;}
	.st4{fill:url(#SVGID_1_);}
	.st5{fill:url(#SVGID_2_);}
</style>
<path class="st0" d="M32.3,77.1c-2.5,3.9-5.8,7.8-8.7,10.7l-2.9-1.9c5.4-5.4,11.2-13.6,13.6-19.4l3.5,0.6c-1,2.5-2.5,4.8-4.5,7.4
	h21.3v2.9H32.3V77.1z M27.1,95.6h3.5v39h-3.5V95.6z M29,87.2l2.5-2.5c2.5,2.5,6.4,5.8,9.3,8.7l-2.5,2.5C35.2,93,31.3,89.2,29,87.2z
	 M37.7,79.1l2.5-1.6c1.6,1.9,3.9,4.8,5.4,6.8l-2.9,1.6C42.6,84.3,39.7,81.4,37.7,79.1z M67.8,100.4v25.2H41.6v-25.2H67.8z
	 M73.2,130.1c5.8,0,6.4-1,6.4-5.8V92.1H44.1v-3.5h39V125c0,6.8-1.6,8.3-9.3,8.3h-8.7l-0.6-3.3H73.2z M45.1,111.7h20v-8.3h-20V111.7z
	 M64.5,122.7v-8.1h-20v8.3h20V122.7z M62,77.1c-1.9,3.5-3.9,6.4-5.8,9.3l-2.9-1.6c4.5-5.8,8.3-12.2,10.7-18.4l3.5,0.6
	c-1,2.5-2.5,4.8-3.5,7.4h24.4v2.9C88.8,77.1,62,77.1,62,77.1z M69.4,79.5l2.5-1.6c1.9,1.9,4.5,4.8,5.8,6.8l-2.5,1.9
	C73.2,83.9,71.3,81.4,69.4,79.5z"/>
<path class="st1" d="M154.1,120.8v14.2h-3.5v-14.2H119v-3.5h31.6v-9.7h-23.3V78.1h15.1c-1.9-2.5-6.4-7.8-8.3-9.7l2.5-1.9
	c1.9,1.9,6.8,7.8,8.7,9.7l-2.5,1.9H159c2.9-3.5,6.8-8.3,9.3-11.6l3.5,1.6c-1.9,2.9-5.4,6.8-8.3,10.3H178v30.1h-23.3v9.7h31.6v3.5
	L154.1,120.8C154.1,121.4,154.1,120.8,154.1,120.8z M130.3,91.1h20V80.8h-20V91.1z M130.3,104.7h20V94.4h-20V104.7z M154.1,81v10.3
	h20V81H154.1z M173.9,104.7V94.4h-19.8v10.3H173.9z"/>
<path class="st2" d="M328.3,81.4h8.3v3.5h-8.3v14.5l7.4-3.5l0.6,3.5l-7.8,3.5v22.9c0,5.4-1.6,6.4-7.4,6.4h-4.8l-0.6-3.5h4.5
	c4.5,0,5.4-1,5.4-4.5v-20l-10.3,4.5l-0.6-3.5c2.9-1,6.8-2.9,10.7-4.5V84.7h-9.7v-3.5h9.7V66.7h3.5L328.3,81.4L328.3,81.4z
	 M357,108.2v-8.3h-17.1V74.6c3.5-0.6,8.3-1.9,12.6-3.9l1,2.9c-3.9,1.6-7.8,2.9-10.7,3.5v8.3h10.3v2.9h-10.3v8.7h13.6V66.9h3.5v30.1
	h14.2v-8.7h-10.3v-2.9h10.7v-8.7h-10.7v-2.9h14.2v26.2h-17.5v8.3h15.1v2.9c-4.5,5.8-8.3,9.7-14.2,13.2c5.4,2.5,12.2,4.5,21.3,5.8
	l-1,3.5c-10.3-1.9-17.5-4.5-23.9-7.4c-6.4,2.9-14.2,5.4-24.8,7.8l-1-3.5c9.7-1.9,17.1-3.9,22.3-6.4c-4.5-2.9-8.3-6.8-12.6-11.6
	l1.9-1.6H338V108C338,108.2,357,108.2,357,108.2z M358.3,122.3c4.8-2.9,8.7-6.4,12.6-11.2h-25.8
	C349.6,115.9,353.5,119.4,358.3,122.3z"/>
<path class="st3" d="M414.2,133.4l-1.6-3.5c6.8-2.9,15.1-7.4,20.9-11.2l1.6,2.9C429.1,126.2,421,130.5,414.2,133.4z M471.6,114.6
	l-21.9,0.6v11.1c0,5.8-1.9,7.8-8.7,7.8h-6.8l-0.6-3.5h6.4c5.4,0,6.4-1.6,6.4-5.4v-10.3c-9.7,0-20,0.6-28.7,1l-0.6-2.9
	c2.9,0,5.8-0.6,6.8-0.6c8.7-2.5,17.1-6.4,24.2-9.7c-6.8,0-18,0.6-26.2,1l-0.6-2.5c2.5,0,4.8-0.6,5.4-1c6.8-2.9,13.6-6.8,18.4-10.7
	l1.9,1.9c-3.9,2.9-8.3,5.4-13.2,8.3l19.4-0.6c3.9-1.9,7.4-4.5,10.3-6.4l1.9,2.5c-9.3,5.8-19.4,11.6-31,16.1l33.9-0.6
	c-2.9-2.5-5.8-4.5-7.8-6.4l1.9-2.5c4.5,3.5,11.2,8.7,15.5,12.6l-1.9,2.5C474.5,116.9,473,115.9,471.6,114.6z M417.1,86.2h28.1v-8.7
	h-27.7v-2.9h27.7v-7.4h3.5v7.4h27.7v2.9h-27.7v8.7h28.1v12.6h-3.5v-9.3h-52.9v9.3h-3.5L417.1,86.2L417.1,86.2z M456.9,122.3l1.6-2.9
	c5.4,2.5,17.1,8.3,22.3,11.2l-1.6,2.9C473.6,130.5,462.3,124.6,456.9,122.3z"/>
<g>
	<g>
		
			<linearGradient id="SVGID_1_" gradientUnits="userSpaceOnUse" x1="250.0261" y1="484.8775" x2="251.3758" y2="420.0859" gradientTransform="matrix(1 0 0 1 0 -348)">
			<stop  offset="0" style="stop-color:#683FFF"/>
			<stop  offset="1" style="stop-color:#DA2AFF"/>
		</linearGradient>
		<path class="st4" d="M220.1,99.8c0-11.2,1.9-18.4,5.4-27.2c0.6-1.9,1.9-3.9,3.5-4.8c2.5-1.9,4.8-1.6,7.8-1
			c4.5,0.6,8.7,2.5,12.6,4.8c7.4,4.5,14.2,8.7,20.9,13.6c3.5,2.5,6.8,5.4,9.3,8.7c2.5,3.5,2.5,6.4,0.6,10.3
			c-2.5,4.8-5.8,8.7-10.7,12.2c-1.6,1-3.5,1.9-4.8,0.6c-1.6-1-1.9-2.9-1.6-4.8c0.6-1.9,1-3.5,1.9-5.4c2.9-6.8,1-12.6-3.5-17.5
			c-3.5-4.5-8.3-7.4-14.2-7.4c-7.4,0-14.2,4.8-16.5,12.2c-2.5,8.3,1.6,17.1,8.7,21.9c2.5,1.6,4.8,1.9,7.8,1.9c1.9,0,3.9,0,5.8,0
			c1.6,0,2.9,0.6,3.9,1.6c1.9,1.6,1.9,3.5,0.6,5.4c-1.9,2.5-4.5,3.9-7.4,5.4c-3.5,1.9-6.8,3.5-10.3,4.5c-7.4,1.9-11.6,0-15.5-5.8
			C223,123.7,220.1,111.7,220.1,99.8z"/>
		
			<linearGradient id="SVGID_2_" gradientUnits="userSpaceOnUse" x1="247.6803" y1="484.8289" x2="249.0302" y2="420.0373" gradientTransform="matrix(1 0 0 1 0 -348)">
			<stop  offset="0" style="stop-color:#683FFF"/>
			<stop  offset="1" style="stop-color:#DA2AFF"/>
		</linearGradient>
		<path class="st5" d="M248.2,90.7c5.4,0,9.3,4.5,9.3,9.7c0,4.8-3.9,8.7-8.7,8.7c-5.4,0-9.3-4.5-9.3-9.7
			C239.1,94.6,242.9,90.7,248.2,90.7z"/>
	</g>
</g>
</svg>
