<?xml version="1.0" encoding="utf-8"?>
<!-- Generator: Adobe Illustrator 22.0.1, SVG Export Plug-In . SVG Version: 6.00 Build 0)  -->
<svg version="1.1" id="图层_1" xmlns="http://www.w3.org/2000/svg" xmlns:xlink="http://www.w3.org/1999/xlink" x="0px" y="0px"
	 viewBox="0 0 200 50" style="enable-background:new 0 0 200 50;" xml:space="preserve">
<style type="text/css">
	.st0{fill:url(#SVGID_1_);}
	.st1{fill:url(#SVGID_2_);}
	.st2{fill:#D5402F;}
	.st3{fill:#45A256;}
</style>
<g>
	<g>
		<g>
			
				<linearGradient id="SVGID_1_" gradientUnits="userSpaceOnUse" x1="100.6326" y1="-104.6532" x2="100.9101" y2="-91.3278" gradientTransform="matrix(1 0 0 -1 0 -69)">
				<stop  offset="0" style="stop-color:#683FFF"/>
				<stop  offset="1" style="stop-color:#DA2AFF"/>
			</linearGradient>
			<path class="st0" d="M94.5,28c0-2.3,0.4-3.8,1.1-5.6c0.1-0.4,0.4-0.8,0.7-1c0.5-0.4,1-0.3,1.6-0.2c0.9,0.1,1.8,0.5,2.6,1
				c1.5,0.9,2.9,1.8,4.3,2.8c0.7,0.5,1.4,1.1,1.9,1.8c0.5,0.7,0.5,1.3,0.1,2.1c-0.5,1-1.2,1.8-2.2,2.5c-0.3,0.2-0.7,0.4-1,0.1
				c-0.3-0.2-0.4-0.6-0.3-1s0.2-0.7,0.4-1.1c0.6-1.4,0.2-2.6-0.7-3.6c-0.7-0.9-1.7-1.5-2.9-1.5c-1.5,0-2.9,1-3.4,2.5
				c-0.5,1.7,0.3,3.5,1.8,4.5c0.5,0.3,1,0.4,1.6,0.4c0.4,0,0.8,0,1.2,0c0.3,0,0.6,0.1,0.8,0.3c0.4,0.3,0.4,0.7,0.1,1.1
				c-0.4,0.5-0.9,0.8-1.5,1.1c-0.7,0.4-1.4,0.7-2.1,0.9c-1.5,0.4-2.4,0-3.2-1.2C95.1,32.9,94.5,30.4,94.5,28z"/>
			
				<linearGradient id="SVGID_2_" gradientUnits="userSpaceOnUse" x1="100.1858" y1="-104.6439" x2="100.4634" y2="-91.3185" gradientTransform="matrix(1 0 0 -1 0 -69)">
				<stop  offset="0" style="stop-color:#683FFF"/>
				<stop  offset="1" style="stop-color:#DA2AFF"/>
			</linearGradient>
			<path class="st1" d="M100.3,26.1c1.1,0,1.9,0.9,1.9,2c0,1-0.8,1.8-1.8,1.8c-1.1,0-1.9-0.9-1.9-2C98.4,26.9,99.2,26.1,100.3,26.1z
				"/>
		</g>
	</g>
</g>
<g>
	<path class="st2" d="M29,33.1V32c1,0.6,2,0.9,3,0.9c1.1,0,1.9-0.2,2.4-0.7s0.8-1.1,0.8-1.8c0-0.7-0.2-1.3-0.6-1.7s-1.2-1-2.4-1.7
		c-1.4-0.8-2.2-1.5-2.6-2s-0.5-1.2-0.5-1.9c0-1,0.4-1.8,1.1-2.4s1.7-1,3-1c0.8,0,1.6,0.1,2.4,0.4v1c-0.8-0.4-1.6-0.5-2.6-0.5
		c-0.9,0-1.7,0.2-2.2,0.7c-0.5,0.5-0.8,1.1-0.8,1.8c0,0.7,0.2,1.2,0.6,1.7c0.4,0.4,1.2,1,2.4,1.7c1.3,0.7,2.1,1.4,2.5,1.9
		c0.4,0.6,0.6,1.2,0.6,1.9c0,1-0.4,1.9-1.1,2.6c-0.7,0.7-1.7,1-3.1,1c-0.5,0-1-0.1-1.6-0.2S29.3,33.3,29,33.1z"/>
	<path class="st2" d="M39.3,21.4c-0.2,0-0.4-0.1-0.5-0.2s-0.2-0.3-0.2-0.5c0-0.2,0.1-0.4,0.2-0.5C39,20,39.1,20,39.3,20
		c0.2,0,0.4,0.1,0.5,0.2c0.1,0.1,0.2,0.3,0.2,0.5c0,0.2-0.1,0.4-0.2,0.5C39.7,21.3,39.5,21.4,39.3,21.4z M38.9,33.6v-9.7h0.9v9.7
		H38.9z"/>
	<path class="st2" d="M55.1,33.6v-5.8c0-1.2-0.2-2.1-0.6-2.6s-1-0.7-1.8-0.7c-0.8,0-1.4,0.3-2,1s-0.8,1.5-0.8,2.5v5.7H49v-5.9
		c0-2.2-0.8-3.2-2.5-3.2c-0.8,0-1.5,0.3-2,1s-0.8,1.5-0.8,2.6v5.6h-0.9v-9.7h0.9v1.6h0c0.7-1.2,1.7-1.9,3-1.9c0.7,0,1.3,0.2,1.8,0.6
		c0.5,0.4,0.8,0.9,1,1.6c0.3-0.7,0.7-1.2,1.3-1.6s1.2-0.6,1.8-0.6c2.1,0,3.2,1.3,3.2,3.9v6H55.1z"/>
	<path class="st2" d="M59.8,31.8L59.8,31.8l0,6.2h-0.9V23.9h0.9v2h0c0.3-0.7,0.8-1.3,1.5-1.7s1.4-0.6,2.1-0.6c1.2,0,2.2,0.4,2.9,1.3
		c0.7,0.9,1,2,1,3.5c0,1.6-0.4,2.9-1.2,3.9s-1.8,1.5-3.1,1.5C61.5,33.8,60.5,33.2,59.8,31.8z M59.7,28.2v1.2c0,1,0.3,1.8,0.9,2.5
		s1.4,1,2.4,1c1,0,1.8-0.4,2.4-1.3s0.9-2,0.9-3.4c0-1.2-0.3-2.2-0.9-2.9s-1.3-1.1-2.3-1.1c-1.1,0-2,0.4-2.6,1.1S59.7,27.2,59.7,28.2
		z"/>
	<path class="st2" d="M69.7,33.6V19.2h0.9v14.4H69.7z"/>
	<path class="st2" d="M73.9,28.8c0,1.3,0.3,2.4,0.9,3.1s1.5,1.1,2.5,1.1c1.1,0,2.2-0.4,3.2-1.2v0.9c-1,0.7-2.1,1.1-3.4,1.1
		c-1.3,0-2.3-0.4-3-1.3S73,30.3,73,28.7c0-1.4,0.4-2.6,1.2-3.6s1.9-1.5,3.1-1.5c1.2,0,2.1,0.4,2.8,1.3s1,2,1,3.5v0.4H73.9z M80.2,28
		c0-1.1-0.3-2-0.8-2.6s-1.2-0.9-2.1-0.9c-0.9,0-1.7,0.3-2.3,0.9s-1,1.5-1.1,2.6H80.2z"/>
</g>
<g>
	<path class="st3" d="M120.3,33.1V32c1,0.6,2,0.9,3,0.9c1.1,0,1.9-0.2,2.4-0.7c0.5-0.4,0.8-1.1,0.8-1.8c0-0.7-0.2-1.3-0.6-1.7
		s-1.2-1-2.4-1.7c-1.4-0.8-2.2-1.5-2.6-2c-0.4-0.5-0.5-1.2-0.5-1.9c0-1,0.4-1.8,1.1-2.4c0.7-0.7,1.7-1,3-1c0.8,0,1.6,0.1,2.4,0.4v1
		c-0.8-0.4-1.6-0.5-2.6-0.5c-0.9,0-1.7,0.2-2.2,0.7c-0.5,0.5-0.8,1.1-0.8,1.8c0,0.7,0.2,1.2,0.6,1.7c0.4,0.4,1.2,1,2.4,1.7
		c1.3,0.7,2.1,1.4,2.5,1.9c0.4,0.6,0.6,1.2,0.6,1.9c0,1-0.4,1.9-1.1,2.6c-0.7,0.7-1.7,1-3.1,1c-0.5,0-1-0.1-1.6-0.2
		C121.1,33.4,120.6,33.3,120.3,33.1z"/>
	<path class="st3" d="M130.4,28.8c0,1.3,0.3,2.4,0.9,3.1s1.5,1.1,2.5,1.1c1.1,0,2.2-0.4,3.2-1.2v0.9c-1,0.7-2.1,1.1-3.4,1.1
		c-1.3,0-2.3-0.4-3-1.3s-1.2-2.2-1.2-3.8c0-1.4,0.4-2.6,1.2-3.6s1.9-1.5,3.1-1.5c1.2,0,2.1,0.4,2.8,1.3c0.6,0.8,1,2,1,3.5v0.4H130.4
		z M136.7,28c0-1.1-0.3-2-0.8-2.6s-1.2-0.9-2.1-0.9c-0.9,0-1.7,0.3-2.3,0.9s-1,1.5-1.1,2.6H136.7z"/>
	<path class="st3" d="M145.8,33.6v-1.9h0c-0.3,0.7-0.8,1.2-1.4,1.6c-0.6,0.4-1.2,0.6-2,0.6c-0.9,0-1.7-0.3-2.2-0.8
		c-0.5-0.5-0.8-1.2-0.8-2c0-1.7,1.1-2.7,3.4-3.1l3-0.4c0-2.1-0.8-3.1-2.4-3.1c-1.1,0-2.1,0.4-3.1,1.3v-1.1c0.4-0.3,0.8-0.5,1.5-0.7
		c0.6-0.2,1.2-0.3,1.7-0.3c1,0,1.8,0.3,2.3,0.9s0.8,1.5,0.8,2.7v6.3H145.8z M143.2,28.7c-1,0.1-1.7,0.4-2.1,0.7
		c-0.4,0.3-0.6,0.9-0.6,1.6c0,0.6,0.2,1,0.6,1.4c0.4,0.4,0.9,0.6,1.6,0.6c0.9,0,1.7-0.3,2.3-1s0.9-1.6,0.9-2.7v-0.9L143.2,28.7z"/>
	<path class="st3" d="M154.2,24.8c-0.3-0.2-0.6-0.3-1-0.3c-0.8,0-1.4,0.4-1.9,1.2c-0.5,0.8-0.8,1.9-0.8,3.4v4.6h-0.9v-9.7h0.9V26h0
		c0.2-0.7,0.6-1.3,1.1-1.7c0.5-0.4,1-0.6,1.7-0.6c0.4,0,0.7,0.1,1,0.2V24.8z"/>
	<path class="st3" d="M162,33.1c-0.7,0.4-1.6,0.7-2.6,0.7c-1.3,0-2.4-0.5-3.2-1.4c-0.8-0.9-1.2-2.1-1.2-3.6c0-1.5,0.5-2.8,1.4-3.8
		c0.9-1,2.1-1.5,3.5-1.5c0.7,0,1.5,0.2,2.2,0.5v1c-0.7-0.4-1.5-0.6-2.3-0.6c-1.1,0-2.1,0.4-2.8,1.2s-1.1,1.9-1.1,3.2
		c0,1.3,0.3,2.3,1,3c0.6,0.8,1.5,1.1,2.6,1.1c1,0,1.8-0.3,2.5-0.8V33.1z"/>
	<path class="st3" d="M170.9,33.6v-5.8c0-1.2-0.2-2-0.6-2.5c-0.4-0.5-1.1-0.8-2-0.8c-0.8,0-1.6,0.3-2.2,1s-0.9,1.6-0.9,2.8v5.4h-0.9
		V19.2h0.9v6.4h0c0.8-1.3,1.9-2,3.3-2c1,0,1.8,0.3,2.4,1c0.6,0.7,0.8,1.6,0.8,2.9v6H170.9z"/>
</g>
</svg>
