<?xml version="1.0" encoding="utf-8"?>
<!-- Generator: Adobe Illustrator 23.0.0, SVG Export Plug-In . SVG Version: 6.00 Build 0)  -->
<svg version="1.1" id="图层_1" xmlns="http://www.w3.org/2000/svg" xmlns:xlink="http://www.w3.org/1999/xlink" x="0px" y="0px"
	 viewBox="0 0 200 50" style="enable-background:new 0 0 200 50;" xml:space="preserve">
<style type="text/css">
	.st0{fill:#5179BC;}
	.st1{fill:#D5402F;}
	.st2{fill:#EBB621;}
	.st3{fill:#45A256;}
	.st4{fill:url(#SVGID_1_);}
	.st5{fill:url(#SVGID_2_);}
</style>
<g>
	<path class="st0" d="M33.9,21c-0.5,0.8-1.2,1.6-1.8,2.2l-0.6-0.4c1.1-1.1,2.3-2.8,2.8-4l0.7,0.1c-0.2,0.5-0.5,1-0.9,1.5h4.4V21
		H33.9z M32.8,24.8h0.7v8h-0.7V24.8z M33.2,23.1l0.5-0.5c0.5,0.5,1.3,1.2,1.9,1.8l-0.5,0.5C34.5,24.3,33.7,23.5,33.2,23.1z M35,21.4
		l0.5-0.3c0.3,0.4,0.8,1,1.1,1.4L36,22.8C36,22.5,35.4,21.9,35,21.4z M41.2,25.8V31h-5.4v-5.2H41.2z M42.3,31.9
		c1.2,0,1.3-0.2,1.3-1.2v-6.6h-7.3v-0.7h8v7.5c0,1.4-0.3,1.7-1.9,1.7h-1.8l-0.1-0.7C40.5,31.9,42.3,31.9,42.3,31.9z M36.5,28.1h4.1
		v-1.7h-4.1V28.1z M40.5,30.4v-1.7h-4.1v1.7H40.5z M40,21c-0.4,0.7-0.8,1.3-1.2,1.9l-0.6-0.3c0.9-1.2,1.7-2.5,2.2-3.8l0.7,0.1
		c-0.2,0.5-0.5,1-0.7,1.5h5V21C45.5,21,40,21,40,21z M41.5,21.5l0.5-0.3c0.4,0.4,0.9,1,1.2,1.4L42.7,23
		C42.3,22.4,41.9,21.9,41.5,21.5z"/>
	<path class="st1" d="M70,30v2.9h-0.7V30h-6.5v-0.7h6.5v-2h-4.8v-6.1h3.1c-0.4-0.5-1.3-1.6-1.7-2l0.5-0.4c0.4,0.4,1.4,1.6,1.8,2
		l-0.5,0.4H71c0.6-0.7,1.4-1.7,1.9-2.4l0.7,0.3c-0.4,0.6-1.1,1.4-1.7,2.1h3v6.2h-4.8v2h6.5v0.7L70,30C70,30.1,70,30,70,30z
		 M65.1,23.9h4.1v-2.1h-4.1V23.9z M65.1,26.7h4.1v-2.1h-4.1V26.7z M70,21.8v2.1h4.1v-2.1H70z M74.1,26.7v-2.1H70v2.1H74.1z"/>
	<path class="st2" d="M128,21.9h1.7v0.7H128v3l1.5-0.7l0.1,0.7l-1.6,0.7V31c0,1.1-0.3,1.3-1.5,1.3h-1l-0.1-0.7h0.9
		c0.9,0,1.1-0.2,1.1-0.9v-4.1l-2.1,0.9l-0.1-0.7c0.6-0.2,1.4-0.6,2.2-0.9v-3.3h-2v-0.7h2v-3h0.7L128,21.9L128,21.9z M133.9,27.4
		v-1.7h-3.5v-5.2c0.7-0.1,1.7-0.4,2.6-0.8l0.2,0.6c-0.8,0.3-1.6,0.6-2.2,0.7v1.7h2.1v0.6H131v1.8h2.8v-6.2h0.7v6.2h2.9v-1.8h-2.1
		v-0.6h2.2v-1.8h-2.2v-0.6h2.9v5.4h-3.6v1.7h3.1V28c-0.9,1.2-1.7,2-2.9,2.7c1.1,0.5,2.5,0.9,4.4,1.2l-0.2,0.7
		c-2.1-0.4-3.6-0.9-4.9-1.5c-1.3,0.6-2.9,1.1-5.1,1.6l-0.2-0.7c2-0.4,3.5-0.8,4.6-1.3c-0.9-0.6-1.7-1.4-2.6-2.4l0.4-0.3H130v-0.6
		H133.9z M134.2,30.3c1-0.6,1.8-1.3,2.6-2.3h-5.3C132.4,29,133.2,29.7,134.2,30.3z"/>
	<path class="st3" d="M156.8,32.6l-0.3-0.7c1.4-0.6,3.1-1.5,4.3-2.3l0.3,0.6C159.9,31.1,158.2,32,156.8,32.6z M168.6,28.7l-4.5,0.1
		v2.3c0,1.2-0.4,1.6-1.8,1.6h-1.4l-0.1-0.7h1.3c1.1,0,1.3-0.3,1.3-1.1v-2.1c-2,0-4.1,0.1-5.9,0.2l-0.1-0.6c0.6,0,1.2-0.1,1.4-0.1
		c1.8-0.5,3.5-1.3,5-2c-1.4,0-3.7,0.1-5.4,0.2l-0.1-0.5c0.5,0,1-0.1,1.1-0.2c1.4-0.6,2.8-1.4,3.8-2.2l0.4,0.4
		c-0.8,0.6-1.7,1.1-2.7,1.7l4-0.1c0.8-0.4,1.5-0.9,2.1-1.3l0.4,0.5c-1.9,1.2-4,2.4-6.4,3.3l7-0.2c-0.6-0.5-1.2-0.9-1.6-1.3l0.4-0.5
		c0.9,0.7,2.3,1.8,3.2,2.6l-0.4,0.5C169.2,29.2,168.9,29,168.6,28.7z M157.4,22.9h5.8v-1.8h-5.7v-0.6h5.7V19h0.7v1.5h5.7v0.6h-5.7
		v1.8h5.8v2.6H169v-1.9h-10.9v1.9h-0.7L157.4,22.9L157.4,22.9z M165.6,30.3l0.3-0.6c1.1,0.5,3.5,1.7,4.6,2.3l-0.3,0.6
		C169,32,166.7,30.8,165.6,30.3z"/>
	<g>
		<g>
			<linearGradient id="SVGID_1_" gradientUnits="userSpaceOnUse" x1="100.6472" y1="33.3061" x2="100.9248" y2="19.9807">
				<stop  offset="0" style="stop-color:#683FFF"/>
				<stop  offset="1" style="stop-color:#DA2AFF"/>
			</linearGradient>
			<path class="st4" d="M94.5,25.7c0-2.3,0.4-3.8,1.1-5.6c0.1-0.4,0.4-0.8,0.7-1c0.5-0.4,1-0.3,1.6-0.2c0.9,0.1,1.8,0.5,2.6,1
				c1.5,0.9,2.9,1.8,4.3,2.8c0.7,0.5,1.4,1.1,1.9,1.8c0.5,0.7,0.5,1.3,0.1,2.1c-0.5,1-1.2,1.8-2.2,2.5c-0.3,0.2-0.7,0.4-1,0.1
				c-0.3-0.2-0.4-0.6-0.3-1s0.2-0.7,0.4-1.1c0.6-1.4,0.2-2.6-0.7-3.6c-0.7-0.9-1.7-1.5-2.9-1.5c-1.5,0-2.9,1-3.4,2.5
				C96.2,26.2,97,28,98.5,29c0.5,0.3,1,0.4,1.6,0.4c0.4,0,0.8,0,1.2,0c0.3,0,0.6,0.1,0.8,0.3c0.4,0.3,0.4,0.7,0.1,1.1
				c-0.4,0.5-0.9,0.8-1.5,1.1c-0.7,0.4-1.4,0.7-2.1,0.9c-1.5,0.4-2.4,0-3.2-1.2C95.1,30.6,94.5,28.1,94.5,25.7z"/>
			<linearGradient id="SVGID_2_" gradientUnits="userSpaceOnUse" x1="100.1509" y1="33.2958" x2="100.4285" y2="19.9704">
				<stop  offset="0" style="stop-color:#683FFF"/>
				<stop  offset="1" style="stop-color:#DA2AFF"/>
			</linearGradient>
			<path class="st5" d="M100.3,23.8c1.1,0,1.9,0.9,1.9,2c0,1-0.8,1.8-1.8,1.8c-1.1,0-1.9-0.9-1.9-2C98.4,24.6,99.2,23.8,100.3,23.8z
				"/>
		</g>
	</g>
</g>
</svg>
