<?xml version="1.0" encoding="utf-8"?>
<!-- Generator: Adobe Illustrator 24.1.1, SVG Export Plug-In . SVG Version: 6.00 Build 0)  -->
<svg version="1.1" id="图层_1" xmlns="http://www.w3.org/2000/svg" xmlns:xlink="http://www.w3.org/1999/xlink" x="0px" y="0px"
	 viewBox="0 0 480 120" style="enable-background:new 0 0 480 120;" xml:space="preserve">
<style type="text/css">
	.st0{fill:#333333;}
	.st1{fill:#e91e63;}
	.st2{fill:#29f;}
</style>
<g>
	<path class="st0" d="M214.58,68.44c0.14,3.86-1.3,7.62-4,10.39c-2.7,2.7-6.4,4.15-10.22,4c-4.14,0-7.47-1.03-10-3.1
		c-2.54-2.14-4.07-5.25-4.2-8.57h5.41c0.17,2.08,1.17,4.01,2.78,5.34c1.8,1.32,4,1.99,6.23,1.88c2.32,0.07,4.56-0.89,6.1-2.62
		c1.62-1.86,2.47-4.27,2.37-6.73c0.13-2.52-0.76-4.99-2.47-6.85c-1.78-1.75-4.21-2.68-6.7-2.55c-1.54,0.01-3.05,0.38-4.41,1.09
		c-1.3,0.64-2.4,1.62-3.19,2.83l-4.37-0.28l3-22.09h21.45v5h-17.59l-1.8,11.32l0.17-0.11c2.11-1.51,4.63-2.34,7.23-2.36
		c4.35,0,7.81,1.21,10.38,3.62C213.32,61.06,214.6,64.33,214.58,68.44z"/>
	<g>
		<rect x="220.99" y="41.18" class="st1" width="5.29" height="5.87"/>
		<polygon class="st0" points="221.05,50.99 223.64,50.99 226.23,50.99 226.23,82.88 223.64,82.88 221.05,82.88 		"/>
	</g>
	<path class="st0" d="M239.28,70.83c0,2.59,0.5,4.46,1.49,5.59c0.99,1.13,2.61,1.7,4.86,1.71c2.34,0.09,4.56-1,5.93-2.89
		c1.56-2.3,2.33-5.05,2.18-7.83V51h5.18v31.87H254v-5.8c-0.34,0.55-0.73,1.08-1.15,1.58c-2,2.53-5.06,3.98-8.28,3.94
		c-3.49,0-6.1-0.87-7.85-2.62s-2.62-4.36-2.62-7.85V51h5.18V70.83z"/>
	<path class="st2" d="M290.12,79.52l2.77,2.58c0.64,0.61,1.51,0.93,2.39,0.9l0,0c0.86-0.02,1.68-0.38,2.28-1l6.2-6.65
		c1.24-1.33,1.17-3.41-0.16-4.65l-9.78-9.12l8.3-8.91c0.5-0.52,0.82-1.18,0.92-1.89l0.09-0.09l-0.07-0.08c0-0.11,0-0.21,0-0.32
		c0.01-0.9-0.35-1.76-1-2.38L295.71,42c-0.62-0.58-1.44-0.88-2.29-0.85l0,0c-0.15-0.01-0.29-0.01-0.44,0l-0.17-0.12l-0.19,0.2
		c-0.63,0.17-1.2,0.52-1.65,1l-8.3,8.91L272.85,42c-1.32-1.24-3.4-1.17-4.64,0.16c0,0,0,0,0,0L262,48.82
		c-1.23,1.33-1.16,3.41,0.17,4.65l3.17,2.95l3.43,3.2l3.18,3L265.07,70l0,0l0,0l0,0v0.07l0,0c0,0.02,0,0.05,0,0.07l0,0l0,0v0.08l0,0
		c-0.03,0.09-0.05,0.19-0.07,0.28l-1.37,10.72c-0.07,0.66,0.35,1.28,1,1.44v0.07h0.8l0,0l10.4-2.09h0.08
		c0.33-0.08,0.63-0.29,0.81-0.58L283.1,73l6.8,6.32 M295.15,80.32c-0.17,0.01-0.33-0.05-0.45-0.16l-2.2-2.06l3.78-4.1
		c0.03-0.02,0.05-0.04,0.07-0.07c0.43-0.59,0.31-1.42-0.28-1.86c-0.52-0.38-1.25-0.33-1.72,0.12l-3.81,4.1l-1.49-1.39l3.82-4.1l0,0
		c0.25-0.27,0.37-0.63,0.34-1c-0.02-0.35-0.17-0.68-0.43-0.92c-0.26-0.23-0.59-0.35-0.94-0.34c-0.36,0.01-0.69,0.17-0.93,0.43
		l-3.82,4.1l-2.2-2l7.06-7.59l9.79,9.12c0.24,0.25,0.24,0.64,0,0.89l-6.21,6.65c-0.12,0.13-0.28,0.2-0.45,0.2L295.15,80.32z
		 M275.37,54.5L275.37,54.5c0.48-0.55,0.43-1.38-0.12-1.86c-0.24-0.21-0.55-0.33-0.88-0.33c-0.34,0.01-0.65,0.15-0.89,0.39l0,0
		l-3.83,4.11l-1.49-1.39l3.82-4.1l0,0c0.45-0.53,0.42-1.31-0.07-1.8c-0.27-0.26-0.63-0.4-1-0.39c-0.33,0.01-0.65,0.15-0.88,0.39l0,0
		l-3.82,4.1L264,51.57c-0.25-0.25-0.25-0.65,0-0.9l6.2-6.66c0.12-0.12,0.27-0.19,0.44-0.2l0,0c0.17,0,0.33,0.06,0.45,0.17l9.78,9.11
		l-7.06,7.59l-2.2-2.06l3.81-4.1L275.37,54.5z M288.44,48.79l7.28,6.78l-4.74,5.08l0,0l-8.87,9.53l-0.06,0.06l-6.81,7.31l-7.28-6.78
		L288.44,48.79z M272.44,78.68l-6.16,1.25l0.81-6.32L272.44,78.68z"/>
</g>
</svg>
