<?xml version="1.0" standalone="no"?><!DOCTYPE svg PUBLIC "-//W3C//DTD SVG 1.1//EN" "http://www.w3.org/Graphics/SVG/1.1/DTD/svg11.dtd"><svg t="1547800350878" class="icon" style="" viewBox="0 0 1040 1024" version="1.1" xmlns="http://www.w3.org/2000/svg" p-id="1988" xmlns:xlink="http://www.w3.org/1999/xlink" width="65" height="64"><defs><style type="text/css"></style></defs><path d="M700.53888 519.085227L409.27488 227.82208a25.658027 25.658027 0 0 0-18.20928-7.54688c-14.226773 0-25.76384 11.529387-25.76384 25.75616a25.675093 25.675093 0 0 0 7.54688 18.213547l275.986773 275.990186-267.126613 267.173547a24.349013 24.349013 0 0 0-6.866773 17.009493c0 13.513387 10.9568 24.477013 24.47616 24.477014a24.405333 24.405333 0 0 0 17.01376-6.880427l276.959573-276.959573a24.080213 24.080213 0 0 0 6.557013-12.726614c-0.533333 3.42272 0.19968 3.86304 0.690347 3.13344a25.660587 25.660587 0 0 0 7.522987-18.190506c0-7.09632-2.873173-13.5296-7.522987-18.189654v0.003414z m0 0" fill="#ffffff" p-id="1989"></path></svg>