<svg width="60" height="60" viewBox="0 0 60 60" fill="none" xmlns="http://www.w3.org/2000/svg">
<path d="M25 52L31 42L30 49H36L29 60L30 52H25Z" fill="#FFD530"/>
<path d="M8 38H11V43H8V38Z" fill="#AEE5FF"/>
<path d="M22 38H25V43H22V38Z" fill="#AEE5FF"/>
<path d="M36 38H39V43H36V38Z" fill="#AEE5FF"/>
<path d="M50 38H53V43H50V38Z" fill="#AEE5FF"/>
<path d="M3 23C3 13.5 15 12.5 15 12.5C15 12.5 18 0 32.5 0C47 0 48 17.5 48 17.5C48 17.5 56.5 18 56.5 25.5C56.5 33 49.5 35 49.5 35H12C12 35 3 32.5 3 23Z" fill="#AEE5FF"/>
</svg>
