<svg width="60" height="60" viewBox="0 0 60 60" fill="none" xmlns="http://www.w3.org/2000/svg">
<path d="M28 48H31V53H28V48Z" fill="#AEE5FF"/>
<path d="M40 48H43V53H40V48Z" fill="#AEE5FF"/>
<path d="M16 48H19V53H16V48Z" fill="#AEE5FF"/>
<path d="M25.5 42.5L22.5 42.5V45.5H25.5V42.5Z" fill="#AEE5FF"/>
<path d="M37.5 42.5L34.5 42.5V45.5H37.5V42.5Z" fill="#AEE5FF"/>
<path d="M49.5 42.5L46.5 42.5V45.5H49.5V42.5Z" fill="#AEE5FF"/>
<path d="M10.5 42.5L13.5 42.5V45.5H10.5V42.5Z" fill="#AEE5FF"/>
<path d="M9 42.5L10.5 42.5M15 42.5L13.5 42.5M10.5 41V42.5M10.5 47V45.5M13.5 41V42.5M13.5 47V45.5M9 45.5H10.5M15 45.5H13.5M13.5 42.5L10.5 42.5M13.5 42.5V45.5M10.5 42.5V45.5M10.5 45.5H13.5M25.5 41V42.5M25.5 42.5L27 42.5M25.5 42.5L22.5 42.5M25.5 42.5V45.5M21 42.5L22.5 42.5M22.5 42.5V41M22.5 42.5V45.5M22.5 45.5V47M22.5 45.5H21M22.5 45.5H25.5M25.5 45.5H27M25.5 45.5V47M37.5 41V42.5M37.5 42.5L39 42.5M37.5 42.5L34.5 42.5M37.5 42.5V45.5M33 42.5L34.5 42.5M34.5 42.5V41M34.5 42.5V45.5M34.5 45.5V47M34.5 45.5H33M34.5 45.5H37.5M37.5 45.5H39M37.5 45.5V47M49.5 41V42.5M49.5 42.5L51 42.5M49.5 42.5L46.5 42.5M49.5 42.5V45.5M45 42.5L46.5 42.5M46.5 42.5V41M46.5 42.5V45.5M46.5 45.5V47M46.5 45.5H45M46.5 45.5H49.5M49.5 45.5H51M49.5 45.5V47" stroke="#BCE9FF"/>
<path d="M3 26C3 16.5 15 15.5 15 15.5C15 15.5 18 3 32.5 3C47 3 48 20.5 48 20.5C48 20.5 56.5 21 56.5 28.5C56.5 36 49.5 38 49.5 38H12C12 38 3 35.5 3 26Z" fill="#AEE5FF"/>
</svg>
