<svg width="60" height="60" viewBox="0 0 60 60" fill="none" xmlns="http://www.w3.org/2000/svg">
<path d="M7 41H10V46H7V41Z" fill="#AEE5FF"/>
<path d="M14 47H17V52H14V47Z" fill="#AEE5FF"/>
<path d="M21 41H24V46H21V41Z" fill="#AEE5FF"/>
<path d="M21 51H24V56H21V51Z" fill="#AEE5FF"/>
<path d="M28 47H31V52H28V47Z" fill="#AEE5FF"/>
<path d="M35 41H38V46H35V41Z" fill="#AEE5FF"/>
<path d="M35 51H38V56H35V51Z" fill="#AEE5FF"/>
<path d="M42 47H45V52H42V47Z" fill="#AEE5FF"/>
<path d="M49 41H52V46H49V41Z" fill="#AEE5FF"/>
<path d="M3 26C3 16.5 15 15.5 15 15.5C15 15.5 18 3 32.5 3C47 3 48 20.5 48 20.5C48 20.5 56.5 21 56.5 28.5C56.5 36 49.5 38 49.5 38H12C12 38 3 35.5 3 26Z" fill="#AEE5FF"/>
</svg>
