<?xml version="1.0" encoding="utf-8"?>
<!-- Generator: Adobe Illustrator 23.0.1, SVG Export Plug-In . SVG Version: 6.00 Build 0)  -->
<svg version="1.1" id="图层_1" xmlns="http://www.w3.org/2000/svg" xmlns:xlink="http://www.w3.org/1999/xlink" x="0px" y="0px"
	 viewBox="0 0 200 50" style="enable-background:new 0 0 200 50;" xml:space="preserve">
<style type="text/css">
	.st0{opacity:0.8;}
	.st1{fill:#E7211F;}
	.st2{fill:#E83919;}
	.st3{fill:#F1881A;}
	.st4{fill:#F4DE26;}
	.st5{fill:#EFEA3C;}
	.st6{fill:#6AB82D;}
	.st7{fill:#6EC19C;}
	.st8{fill:#337EC2;}
	.st9{fill:#255AA9;}
	.st10{fill:#904A99;}
	.st11{fill:#E62283;}
	.st12{fill:#E62178;}
	.st13{fill:#E4007F;}
	.st14{fill:#5179BC;}
	.st15{fill:#D5402F;}
	.st16{fill:#EBB621;}
	.st17{fill:#45A256;}
</style>
<g>
	<g>
		<g>
			<g class="st0">
				<path class="st1" d="M55.7,26.9c0,0.5-0.9,0.9-2,0.9c-1.1,0-2-0.4-2-0.9c0-0.2,0.4,0,0.7-0.1c0.4-0.2,1.2-0.6,1.8-0.6
					C55.3,26.2,55.7,26.5,55.7,26.9z"/>
			</g>
			<g class="st0">
				<path class="st2" d="M55.2,24.9c0.2,0.4-0.3,1.2-1.3,1.8c-1,0.6-1.9,0.7-2.2,0.2c-0.1-0.2,0.4-0.2,0.6-0.5
					c0.2-0.3,0.8-1.1,1.3-1.4C54.5,24.5,54.9,24.5,55.2,24.9z"/>
			</g>
			<g class="st0">
				<path class="st3" d="M53.7,23.5c0.4,0.2,0.3,1.2-0.2,2.2c-0.6,1-1.3,1.5-1.8,1.3c-0.2-0.1,0.2-0.4,0.2-0.7
					c0-0.4,0.1-1.3,0.4-1.8C52.9,23.4,53.3,23.2,53.7,23.5z"/>
			</g>
			<g class="st0">
				<path class="st4" d="M51.7,22.9c0.5,0,0.9,0.9,0.9,2c0,1.1-0.4,2-0.9,2c-0.2,0,0-0.4-0.1-0.7C51.4,25.8,51,25,51,24.4
					C51,23.3,51.2,22.9,51.7,22.9z"/>
			</g>
			<g class="st0">
				<path class="st5" d="M49.7,23.5c0.4-0.2,1.2,0.3,1.8,1.3c0.6,1,0.7,1.9,0.2,2.2c-0.2,0.1-0.2-0.4-0.5-0.6
					c-0.3-0.2-1.1-0.8-1.4-1.3C49.3,24.1,49.3,23.7,49.7,23.5z"/>
			</g>
			<g class="st0">
				<path class="st6" d="M48.2,24.9c0.2-0.4,1.2-0.3,2.2,0.2s1.5,1.3,1.3,1.8c-0.1,0.2-0.4-0.2-0.7-0.2c-0.4,0-1.3-0.1-1.8-0.4
					C48.2,25.7,48,25.4,48.2,24.9z"/>
			</g>
			<g class="st0">
				<path class="st7" d="M47.7,26.9c0-0.5,0.9-0.9,2-0.9c1.1,0,2,0.4,2,0.9c0,0.2-0.4,0-0.7,0.1c-0.4,0.2-1.2,0.6-1.8,0.6
					C48.1,27.6,47.7,27.4,47.7,26.9z"/>
			</g>
			<g class="st0">
				<path class="st8" d="M48.2,28.9c-0.2-0.4,0.3-1.2,1.3-1.8c1-0.6,1.9-0.7,2.2-0.2c0.1,0.2-0.4,0.2-0.6,0.5
					c-0.2,0.3-0.8,1.1-1.3,1.4C48.9,29.4,48.5,29.4,48.2,28.9z"/>
			</g>
			<g class="st0">
				<path class="st9" d="M49.7,30.4c-0.4-0.2-0.3-1.2,0.2-2.2c0.6-1,1.3-1.5,1.8-1.3c0.2,0.1-0.2,0.4-0.2,0.7c0,0.4-0.1,1.3-0.4,1.8
					C50.5,30.4,50.1,30.7,49.7,30.4z"/>
			</g>
			<g class="st0">
				<path class="st10" d="M51.7,30.9c-0.5,0-0.9-0.9-0.9-2s0.4-2,0.9-2c0.2,0,0,0.4,0.1,0.7c0.2,0.4,0.6,1.2,0.6,1.8
					C52.4,30.6,52.2,30.9,51.7,30.9z"/>
			</g>
			<g class="st0">
				<path class="st11" d="M53.7,30.4c-0.4,0.2-1.2-0.3-1.8-1.3c-0.6-1-0.7-1.9-0.2-2.2c0.2-0.1,0.2,0.4,0.5,0.6
					c0.3,0.2,1.1,0.8,1.4,1.3C54.1,29.7,54.1,30.2,53.7,30.4z"/>
			</g>
			<g class="st0">
				<path class="st12" d="M55.2,28.9c-0.2,0.4-1.2,0.3-2.2-0.2s-1.5-1.3-1.3-1.8c0.1-0.2,0.4,0.2,0.7,0.2c0.4,0,1.3,0.1,1.8,0.4
					C55.2,28.2,55.4,28.5,55.2,28.9z"/>
			</g>
		</g>
		<g>
			<g>
				<g>
					<path class="st13" d="M58.2,32.8l-1.4-1.4c1-1.2,1.7-2.7,1.7-4.4c0-3.7-3-6.7-6.7-6.7c-3.7,0-6.7,3-6.7,6.7s3,6.7,6.7,6.7
						c1.7,0,3.2-0.6,4.4-1.7l1.4,1.4c0.1,0.1,0.2,0.1,0.3,0.1c0.1,0,0.2,0,0.3-0.1C58.4,33.3,58.4,33,58.2,32.8L58.2,32.8z
						 M45.9,26.9c0-3.2,2.6-5.8,5.8-5.8c3.2,0,5.8,2.6,5.8,5.8s-2.6,5.8-5.8,5.8C48.5,32.8,45.9,30.2,45.9,26.9L45.9,26.9z"/>
				</g>
			</g>
		</g>
	</g>
	<g>
		<path class="st14" d="M73.8,30.3v2.2h6.8v0.8H65.8v-0.8h2.8v-3.9h0.9v3.9h3.4v-5.2h-6.2v-0.8h13.1v0.8h-6v2.1H79v0.8L73.8,30.3
			L73.8,30.3z M75.1,21.4c-0.4,0.3-0.9,0.7-1.4,1v3.5h-0.9v-3c-1.8,1-4.1,2-6.7,2.7l-0.3-0.9c3.4-0.9,6-2.1,7.9-3.4h-7.4v-0.8h14
			v0.8H75.1z M74.5,23.5l0.2-0.7c1.5,0.4,4.5,1.3,5.9,1.8l-0.3,0.8C78.9,24.9,76.1,24,74.5,23.5z"/>
		<path class="st15" d="M92.6,30.3v2.2h6.8v0.8H84.5v-0.8h2.8v-3.9h0.9v3.9h3.4v-5.2h-6.2v-0.8h13.1v0.8h-6v2.1h5.2v0.8L92.6,30.3
			C92.6,30.2,92.6,30.3,92.6,30.3z M93.8,21.4c-0.4,0.3-0.9,0.7-1.4,1v3.5h-0.9v-3c-1.8,1-4.1,2-6.7,2.7l-0.3-0.9
			c3.4-0.9,6-2.1,7.9-3.4H85v-0.8h14v0.8H93.8z M93.3,23.5l0.2-0.7c1.5,0.4,4.5,1.3,5.9,1.8l-0.3,0.8C97.7,24.9,94.8,24,93.3,23.5z"
			/>
		<path class="st16" d="M103.7,21.3h3.5v9.9h-2.7v1.5h-0.8V21.3z M104.5,30.4h1.8v-8.2h-1.8V30.4z M109,34.3l-0.3-0.8
			c0.5-0.2,0.5-0.5,0.5-0.8v-4.2h-1.5v-0.8h10.1v0.8h-5.3c0.4,0.9,0.8,1.7,1.3,2.3c1-0.6,1.9-1.2,2.7-1.8l0.5,0.6
			c-0.7,0.5-1.6,1.1-2.6,1.7c0.8,0.8,2,1.3,3.5,1.8l-0.4,0.8c-3.2-1.1-4.7-2.5-5.8-5.4H110V33l2.8-1.1l0,0.9
			C112.4,32.9,110.4,33.6,109,34.3z M116.5,20.5v5.7h-7.6v-5.7H116.5z M109.8,23h2.6v-1.8h-2.6V23z M109.8,25.4h2.6v-1.7h-2.6V25.4z
			 M113.1,21.2V23h2.6v-1.8H113.1z M115.7,25.4v-1.7h-2.6v1.7C113.1,25.4,115.7,25.4,115.7,25.4z"/>
		<path class="st14" d="M125.1,22.8h1.7v0.9h-1.7v3c0.6-0.3,1.1-0.5,1.5-0.7l0.1,0.9l-1.6,0.7v4.9c0,1.2-0.3,1.5-1.7,1.5h-1
			l-0.2-0.9h1c0.9,0,1.1-0.2,1.1-0.9v-4.3c-0.8,0.3-1.6,0.7-2.2,1l-0.1-0.9c0.6-0.2,1.4-0.6,2.3-1v-3.3h-2v-0.9h2v-3.1h0.8
			L125.1,22.8L125.1,22.8z M131.1,28.5v-1.7h-3.7v-5.6c0.8-0.2,1.8-0.5,2.8-0.8l0.3,0.8c-0.8,0.3-1.7,0.6-2.3,0.7v1.7h2.2v0.7h-2.2
			v1.8h2.9v-6.5h0.9v6.5h3v-1.8h-2.3v-0.7h2.3v-1.8h-2.3v-0.8h3.1v5.8H132v1.7h3.3v0.7c-0.9,1.2-1.8,2.1-2.9,2.8
			c1.2,0.5,2.6,0.9,4.5,1.2l-0.3,0.9c-2.2-0.4-3.8-0.9-5.2-1.6c-1.4,0.6-3,1.2-5.3,1.7l-0.3-0.9c2.1-0.4,3.5-0.8,4.8-1.3
			c-0.9-0.6-1.8-1.4-2.6-2.5l0.4-0.3h-1.2v-0.7L131.1,28.5L131.1,28.5z M131.5,31.6c1-0.6,1.8-1.3,2.7-2.3h-5.4
			C129.7,30.3,130.5,31,131.5,31.6z"/>
		<path class="st17" d="M141.1,33.9l-0.4-0.8c1.4-0.6,3.3-1.6,4.5-2.4l0.4,0.7C144.4,32.3,142.6,33.3,141.1,33.9z M141.7,23.6h6.1
			v-1.7h-5.9v-0.8h5.9v-1.5h0.9v1.5h6v0.8h-6v1.7h6.1v2.8h-0.9v-2h-6.2l0.5,0.5c-0.9,0.6-1.7,1.2-2.7,1.7l4-0.1
			c0.8-0.5,1.6-0.9,2.3-1.4l0.5,0.7c-2,1.3-4.1,2.5-6.5,3.4l7-0.2l-1.6-1.2l0.5-0.6c0.9,0.7,2.4,1.9,3.4,2.7l-0.5,0.6l-0.9-0.8
			l-4.7,0.1v2.3c0,1.3-0.4,1.7-1.9,1.7h-1.5l-0.2-0.8h1.3c1.1,0,1.3-0.3,1.3-1.1v-2.1c-2.1,0.1-4.4,0.1-6.1,0.2l-0.1-0.8
			c0.6,0,1.3-0.1,1.9-0.3c1.5-0.4,3.1-1.1,4.5-1.9c-1.5,0-3.8,0.1-5.5,0.2l-0.1-0.6c0.5,0,1-0.1,1.5-0.3c1.1-0.5,2.5-1.3,3.6-2.1h-5
			v2h-0.9L141.7,23.6C141.6,23.6,141.7,23.6,141.7,23.6z M150.4,31.5l0.4-0.8c1.2,0.6,3.7,1.8,4.8,2.4l-0.4,0.8
			C154,33.3,151.6,32,150.4,31.5z"/>
	</g>
</g>
</svg>
