<?xml version="1.0" encoding="utf-8"?>
<!-- Generator: Adobe Illustrator 23.0.0, SVG Export Plug-In . SVG Version: 6.00 Build 0)  -->
<svg version="1.1" id="图层_1" xmlns="http://www.w3.org/2000/svg" xmlns:xlink="http://www.w3.org/1999/xlink" x="0px" y="0px"
	 viewBox="0 0 200 50" style="enable-background:new 0 0 200 50;" xml:space="preserve">
<style type="text/css">
	.st0{fill:#5179BC;}
	.st1{fill:#D5402F;}
	.st2{fill:#EBB621;}
	.st3{fill:#45A256;}
	.st4{fill:#E53F24;}
	.st5{fill:#3FAA54;}
	.st6{fill:#4E80F6;}
	.st7{fill:#F6BD11;}
</style>
<g>
	<g>
		<g>
			<g>
				<path class="st0" d="M74.4,28.3v2.2h6.8v0.8H66.4v-0.8h2.8v-3.9h0.9v3.9h3.4v-5.2h-6.2v-0.8h13.1v0.8h-6v2.1h5.2v0.8L74.4,28.3
					L74.4,28.3z M75.7,19.4c-0.4,0.3-0.9,0.7-1.4,1v3.5h-0.9v-3c-1.8,1-4.1,2-6.7,2.7l-0.3-0.9c3.4-0.9,6-2.1,7.9-3.4h-7.4v-0.8h14
					v0.8L75.7,19.4L75.7,19.4z M75.1,21.5l0.2-0.7c1.5,0.4,4.5,1.3,5.9,1.8l-0.3,0.8C79.5,22.9,76.7,22,75.1,21.5z"/>
				<path class="st1" d="M93.2,28.3v2.2h6.8v0.8H85.1v-0.8h2.8v-3.9h0.9v3.9h3.4v-5.2H86v-0.8h13.1v0.8h-6v2.1h5.2v0.8L93.2,28.3
					C93.2,28.2,93.2,28.3,93.2,28.3z M94.4,19.4c-0.4,0.3-0.9,0.7-1.4,1v3.5h-0.9v-3c-1.8,1-4.1,2-6.7,2.7l-0.3-0.9
					c3.4-0.9,6-2.1,7.9-3.4h-7.4v-0.8h14v0.8L94.4,19.4L94.4,19.4z M93.9,21.5l0.2-0.7c1.5,0.4,4.5,1.3,5.9,1.8l-0.3,0.8
					C98.3,22.9,95.4,22,93.9,21.5z"/>
				<path class="st2" d="M104.3,19.3h3.5v9.9h-2.7v1.5h-0.8V19.3z M105.1,28.4h1.8v-8.2h-1.8V28.4z M109.6,32.3l-0.3-0.8
					c0.5-0.2,0.5-0.5,0.5-0.8v-4.2h-1.5v-0.8h10.1v0.8h-5.3c0.4,0.9,0.8,1.7,1.3,2.3c1-0.6,1.9-1.2,2.7-1.8l0.5,0.6
					c-0.7,0.5-1.6,1.1-2.6,1.7c0.8,0.8,2,1.3,3.5,1.8l-0.4,0.8c-3.2-1.1-4.7-2.5-5.8-5.4h-1.7V31l2.8-1.1v0.9
					C113,30.9,111,31.6,109.6,32.3z M117.1,18.5v5.7h-7.6v-5.7H117.1z M110.4,21h2.6v-1.8h-2.6V21z M110.4,23.4h2.6v-1.7h-2.6V23.4z
					 M113.7,19.2V21h2.6v-1.8H113.7z M116.3,23.4v-1.7h-2.6v1.7H116.3z"/>
				<path class="st0" d="M125.7,20.8h1.7v0.9h-1.7v3c0.6-0.3,1.1-0.5,1.5-0.7l0.1,0.9l-1.6,0.7v4.9c0,1.2-0.3,1.5-1.7,1.5h-1
					l-0.2-0.9h1c0.9,0,1.1-0.2,1.1-0.9v-4.3c-0.8,0.3-1.6,0.7-2.2,1l-0.1-0.9c0.6-0.2,1.4-0.6,2.3-1v-3.3h-2v-0.9h2v-3.1h0.8
					L125.7,20.8L125.7,20.8z M131.7,26.5v-1.7H128v-5.6c0.8-0.2,1.8-0.5,2.8-0.8l0.3,0.8c-0.8,0.3-1.7,0.6-2.3,0.7v1.7h2.2v0.7h-2.2
					v1.8h2.9v-6.5h0.9v6.5h3v-1.8h-2.3v-0.7h2.3v-1.8h-2.3V19h3.1v5.8h-3.8v1.7h3.3v0.7c-0.9,1.2-1.8,2.1-2.9,2.8
					c1.2,0.5,2.6,0.9,4.5,1.2l-0.3,0.9c-2.2-0.4-3.8-0.9-5.2-1.6c-1.4,0.6-3,1.2-5.3,1.7l-0.3-0.9c2.1-0.4,3.5-0.8,4.8-1.3
					c-0.9-0.6-1.8-1.4-2.6-2.5l0.4-0.3h-1.2v-0.7H131.7L131.7,26.5z M132.1,29.6c1-0.6,1.8-1.3,2.7-2.3h-5.4
					C130.3,28.3,131.1,29,132.1,29.6z"/>
				<path class="st3" d="M141.7,31.9l-0.4-0.8c1.4-0.6,3.3-1.6,4.5-2.4l0.4,0.7C144.9,30.3,143.2,31.3,141.7,31.9z M142.3,21.6h6.1
					v-1.7h-5.9v-0.8h5.9v-1.5h0.9v1.5h6v0.8h-6v1.7h6.1v2.8h-0.9v-2h-6.2l0.5,0.5c-0.9,0.6-1.7,1.2-2.7,1.7l4-0.1
					c0.8-0.5,1.6-0.9,2.3-1.4l0.5,0.7c-2,1.3-4.1,2.5-6.5,3.4l7-0.2l-1.6-1.2l0.5-0.6c0.9,0.7,2.4,1.9,3.4,2.7l-0.5,0.6l-0.9-0.8
					l-4.7,0.1v2.3c0,1.3-0.4,1.7-1.9,1.7h-1.5L146,31h1.3c1.1,0,1.3-0.3,1.3-1.1v-2.1c-2.1,0.1-4.4,0.1-6.1,0.2l-0.1-0.8
					c0.6,0,1.3-0.1,1.9-0.3c1.5-0.4,3.1-1.1,4.5-1.9c-1.5,0-3.8,0.1-5.5,0.2l-0.1-0.6c0.5,0,1-0.1,1.5-0.3c1.1-0.5,2.5-1.3,3.6-2.1
					h-5v2h-0.9L142.3,21.6C142.2,21.6,142.3,21.6,142.3,21.6z M150.9,29.5l0.4-0.8c1.2,0.6,3.7,1.8,4.8,2.4l-0.4,0.8
					C154.6,31.3,152.2,30,150.9,29.5z"/>
			</g>
		</g>
	</g>
	<path class="st4" d="M49.3,21.7h-3.9c-0.8,0-1.5,0.7-1.5,1.5s0.7,1.5,1.5,1.5h3.9c0.8,0,1.5-0.7,1.5-1.5S50.1,21.7,49.3,21.7z"/>
	<path class="st5" d="M53,25.5c-0.8,0-1.5,0.7-1.5,1.5s0.7,1.5,1.5,1.5h3.9c0.8,0,1.5-0.7,1.5-1.5s-0.7-1.5-1.5-1.5H53z"/>
	<path class="st6" d="M53,24.7c0.8,0,1.5-0.7,1.5-1.5v-3.9c0.1-0.8-0.6-1.5-1.5-1.5c-0.8,0-1.5,0.7-1.5,1.5v3.9
		C51.5,24,52.2,24.7,53,24.7z"/>
	<path class="st7" d="M49.2,25.5c-0.8,0-1.5,0.7-1.5,1.5v3.9c0,0.8,0.7,1.5,1.5,1.5c0.8,0,1.5-0.7,1.5-1.5V27
		C50.7,26.2,50.1,25.5,49.2,25.5z"/>
	<path class="st5" d="M53,32.4c0.8,0,1.5-0.7,1.5-1.5s-0.7-1.5-1.5-1.5h-1.5v1.5C51.5,31.7,52.2,32.4,53,32.4z"/>
	<path class="st7" d="M43.9,27c0,0.8,0.7,1.5,1.5,1.5c0.8,0,1.5-0.7,1.5-1.5v-1.5h-1.5C44.6,25.5,43.9,26.2,43.9,27z"/>
	<path class="st4" d="M49.2,17.8c-0.8,0-1.5,0.7-1.5,1.5s0.7,1.5,1.5,1.5h1.5v-1.5C50.7,18.5,50.1,17.8,49.2,17.8z"/>
	<path class="st6" d="M58.3,23.3c0-0.8-0.7-1.5-1.5-1.5c-0.8,0-1.5,0.7-1.5,1.5v1.5h1.5C57.6,24.8,58.3,24.1,58.3,23.3z"/>
</g>
</svg>
