<?xml version="1.0" encoding="utf-8"?>
<!-- Generator: Adobe Illustrator 23.0.0, SVG Export Plug-In . SVG Version: 6.00 Build 0)  -->
<svg version="1.1" id="图层_1" xmlns="http://www.w3.org/2000/svg" xmlns:xlink="http://www.w3.org/1999/xlink" x="0px" y="0px"
	 viewBox="0 0 200 50" style="enable-background:new 0 0 200 50;" xml:space="preserve">
<style type="text/css">
	.st0{fill:#5179BC;}
	.st1{fill:#D5402F;}
	.st2{fill:#EBB621;}
	.st3{fill:#45A256;}
</style>
<g>
	<g>
		<g>
			<path class="st0" d="M63.1,28.3v2.2h6.8v0.8H55.1v-0.8h2.8v-3.9h0.9v3.9h3.4v-5.2H56v-0.8h13.1v0.8h-6v2.1h5.2v0.8L63.1,28.3
				L63.1,28.3z M64.4,19.4c-0.4,0.3-0.9,0.7-1.4,1v3.5h-0.9v-3c-1.8,1-4.1,2-6.7,2.7l-0.3-0.9c3.4-0.9,6-2.1,7.9-3.4h-7.4v-0.8h14
				v0.8L64.4,19.4L64.4,19.4z M63.8,21.5l0.2-0.7c1.5,0.4,4.5,1.3,5.9,1.8l-0.3,0.8C68.2,22.9,65.4,22,63.8,21.5z"/>
			<path class="st1" d="M81.9,28.3v2.2h6.8v0.8H73.8v-0.8h2.8v-3.9h0.9v3.9h3.4v-5.2h-6.2v-0.8h13.1v0.8h-6v2.1H87v0.8L81.9,28.3
				C81.9,28.2,81.9,28.3,81.9,28.3z M83.1,19.4c-0.4,0.3-0.9,0.7-1.4,1v3.5h-0.9v-3c-1.8,1-4.1,2-6.7,2.7l-0.3-0.9
				c3.4-0.9,6-2.1,7.9-3.4h-7.4v-0.8h14v0.8L83.1,19.4L83.1,19.4z M82.6,21.5l0.2-0.7c1.5,0.4,4.5,1.3,5.9,1.8l-0.3,0.8
				C87,22.9,84.1,22,82.6,21.5z"/>
			<path class="st2" d="M93,19.3h3.5v9.9h-2.7v1.5H93V19.3z M93.8,28.4h1.8v-8.2h-1.8V28.4z M98.3,32.3L98,31.5
				c0.5-0.2,0.5-0.5,0.5-0.8v-4.2H97v-0.8h10.1v0.8h-5.3c0.4,0.9,0.8,1.7,1.3,2.3c1-0.6,1.9-1.2,2.7-1.8l0.5,0.6
				c-0.7,0.5-1.6,1.1-2.6,1.7c0.8,0.8,2,1.3,3.5,1.8l-0.4,0.8c-3.2-1.1-4.7-2.5-5.8-5.4h-1.7V31l2.8-1.1v0.9
				C101.7,30.9,99.7,31.6,98.3,32.3z M105.8,18.5v5.7h-7.6v-5.7H105.8z M99.1,21h2.6v-1.8h-2.6V21z M99.1,23.4h2.6v-1.7h-2.6V23.4z
				 M102.4,19.2V21h2.6v-1.8H102.4z M105,23.4v-1.7h-2.6v1.7H105z"/>
			<path class="st0" d="M114.4,20.8h1.7v0.9h-1.7v3c0.6-0.3,1.1-0.5,1.5-0.7l0.1,0.9l-1.6,0.7v4.9c0,1.2-0.3,1.5-1.7,1.5h-1
				l-0.2-0.9h1c0.9,0,1.1-0.2,1.1-0.9v-4.3c-0.8,0.3-1.6,0.7-2.2,1l-0.1-0.9c0.6-0.2,1.4-0.6,2.3-1v-3.3h-2v-0.9h2v-3.1h0.8
				L114.4,20.8L114.4,20.8z M120.4,26.5v-1.7h-3.7v-5.6c0.8-0.2,1.8-0.5,2.8-0.8l0.3,0.8c-0.8,0.3-1.7,0.6-2.3,0.7v1.7h2.2v0.7h-2.2
				v1.8h2.9v-6.5h0.9v6.5h3v-1.8H122v-0.7h2.3v-1.8H122V19h3.1v5.8h-3.8v1.7h3.3v0.7c-0.9,1.2-1.8,2.1-2.9,2.8
				c1.2,0.5,2.6,0.9,4.5,1.2l-0.3,0.9c-2.2-0.4-3.8-0.9-5.2-1.6c-1.4,0.6-3,1.2-5.3,1.7l-0.3-0.9c2.1-0.4,3.5-0.8,4.8-1.3
				c-0.9-0.6-1.8-1.4-2.6-2.5l0.4-0.3h-1.2v-0.7L120.4,26.5L120.4,26.5z M120.8,29.6c1-0.6,1.8-1.3,2.7-2.3h-5.4
				C119,28.3,119.8,29,120.8,29.6z"/>
			<path class="st3" d="M130.4,31.9l-0.4-0.8c1.4-0.6,3.3-1.6,4.5-2.4l0.4,0.7C133.7,30.3,131.9,31.3,130.4,31.9z M131,21.6h6.1
				v-1.7h-5.9v-0.8h5.9v-1.5h0.9v1.5h6v0.8h-6v1.7h6.1v2.8h-0.9v-2H137l0.5,0.5c-0.9,0.6-1.7,1.2-2.7,1.7l4-0.1
				c0.8-0.5,1.6-0.9,2.3-1.4l0.5,0.7c-2,1.3-4.1,2.5-6.5,3.4l7-0.2l-1.6-1.2l0.5-0.6c0.9,0.7,2.4,1.9,3.4,2.7l-0.5,0.6l-0.9-0.8
				l-4.7,0.1v2.3c0,1.3-0.4,1.7-1.9,1.7h-1.5l-0.2-0.8h1.3c1.1,0,1.3-0.3,1.3-1.1v-2.1c-2.1,0.1-4.4,0.1-6.1,0.2l-0.1-0.8
				c0.6,0,1.3-0.1,1.9-0.3c1.5-0.4,3.1-1.1,4.5-1.9c-1.5,0-3.8,0.1-5.5,0.2l-0.1-0.6c0.5,0,1-0.1,1.5-0.3c1.1-0.5,2.5-1.3,3.6-2.1
				h-5v2h-0.9L131,21.6C130.9,21.6,131,21.6,131,21.6z M139.7,29.5l0.4-0.8c1.2,0.6,3.7,1.8,4.8,2.4l-0.4,0.8
				C143.3,31.3,140.9,30,139.7,29.5z"/>
		</g>
	</g>
</g>
</svg>
